<svg xmlns="http://www.w3.org/2000/svg" version="1.1" xmlns:xlink="http://www.w3.org/1999/xlink" xmlns:svgjs="http://svgjs.dev/svgjs" viewBox="0 0 800 800" opacity="1"><defs><filter id="bbburst-blur-1" x="-100%" y="-100%" width="400%" height="400%"><feGaussianBlur in="SourceGraphic" stdDeviation="1"></feGaussianBlur></filter><filter id="bbburst-blur-2" x="-100%" y="-100%" width="400%" height="400%"><feGaussianBlur in="SourceGraphic" stdDeviation="2"></feGaussianBlur></filter><filter id="bbburst-blur-3" x="-100%" y="-100%" width="400%" height="400%"><feGaussianBlur in="SourceGraphic" stdDeviation="4"></feGaussianBlur></filter><filter id="bbburst-blur-4" x="-100%" y="-100%" width="400%" height="400%"><feGaussianBlur in="SourceGraphic" stdDeviation="12"></feGaussianBlur></filter><symbol id="bbburst-shape-1" viewBox="0 0 194 167"><path d="m97 0 96.129 166.5H.871L97 0Z"></path></symbol><symbol id="bbburst-shape-2" viewBox="0 0 126 115"><path d="m63 0 62.77 43.877-23.976 70.996H24.206L.23 43.877 63 0Z"></path></symbol><symbol id="bbburst-shape-3" viewBox="0 0 131 127"><path d="m66 0 66 63.5L66 127 0 63.5 66 0Z"></path></symbol><symbol id="bbburst-shape-4" viewBox="0 0 149 143"><path d="M71.647 2.781c.898-2.764 4.808-2.764 5.706 0l15.445 47.534a3 3 0 0 0 2.853 2.073h49.98c2.906 0 4.115 3.719 1.764 5.427L106.96 87.193a2.999 2.999 0 0 0-1.09 3.354l15.445 47.534c.898 2.764-2.266 5.062-4.617 3.354l-40.435-29.378a3 3 0 0 0-3.526 0l-40.435 29.378c-2.351 1.708-5.515-.59-4.617-3.354L43.13 90.547a3 3 0 0 0-1.09-3.354L1.605 57.815c-2.35-1.708-1.142-5.427 1.764-5.427h49.98a3 3 0 0 0 2.853-2.073L71.647 2.781Z"></path></symbol><symbol id="bbburst-shape-6" viewBox="0 0 133 116"><path d="M59.7487 10.2513c-13.6683-13.66839-35.8291-13.66839-49.4974 0-13.66839 13.6683-13.66839 35.8291 0 49.4974l49.4974-49.4974ZM66.5 66.5 41.7513 91.2487 66.5 115.997l24.7487-24.7483L66.5 66.5Zm56.249-6.7513c13.668-13.6683 13.668-35.8291 0-49.4974-13.669-13.66839-35.8294-13.66839-49.4977 0l49.4977 49.4974Zm-112.4977 0 31.5 31.5 49.4974-49.4974-31.5-31.5-49.4974 49.4974Zm80.9974 31.5 31.5003-31.5-49.4977-49.4974-31.5 31.5 49.4974 49.4974Z"></path></symbol><symbol id="bbburst-shape-8" viewBox="0 0 87 168"><path d="m12 12 31.2546 18.0749c16.4102 9.4902 20.014 31.6325 7.4603 45.8369L36.3296 92.1884c-12.5684 14.2206-8.9394 36.3916 7.5068 45.8636L75 156" stroke-width="14" stroke-linecap="round" stroke-linejoin="round"></path></symbol><symbol id="bbburst-shape-9" viewBox="0 0 182 172"><path d="M13.5809 69.845 91 13.5967l77.419 56.2483-29.571 91.012H43.1524L13.5809 69.845Z" stroke-width="22"></path></symbol><symbol id="bbburst-shape-10" viewBox="0 0 145 145"><circle cx="72.5" cy="72.5" r="61.5" fill="none" stroke-width="22"></circle></symbol><symbol id="bbburst-shape-13" viewBox="0 0 159 159"><path stroke-width="22" d="M11 11h137v137H11z"></path></symbol></defs><use xlink:href="#bbburst-shape-3" width="34.436598613268174" opacity="0.5734242484945464" transform="matrix(0.9261266708569948,-0.37721265822787475,0.37721265822787475,0.9261266708569948,-106.60506484629232,58.37931698036391)" fill="#ffa6d5" filter="url(#bbburst-blur-1)"></use><use xlink:href="#bbburst-shape-2" width="66.80676509421542" opacity="0.19234713262241554" transform="matrix(0.9917250349053509,-0.12838011973035618,0.12838011973035618,0.9917250349053509,481.0329915447873,184.26349481398944)" fill="#2c2891" filter="url(#bbburst-blur-3)"></use><use xlink:href="#bbburst-shape-4" width="13.272937211319688" opacity="0.8948415774836598" transform="matrix(0.7973741282439689,0.6034852936130015,-0.6034852936130015,0.7973741282439689,322.56284277904246,-263.0984283444523)" fill="#ffbd9b"></use><use xlink:href="#bbburst-shape-10" width="35.72201310453497" opacity="0.712800999858739" transform="matrix(0.868771952286939,0.49521237355254016,-0.49521237355254016,0.868771952286939,332.7862779936795,-111.57289625447319)" fill="none" stroke="#2c2891"></use><use xlink:href="#bbburst-shape-1" width="20.72651634190216" opacity="0.7956323150463406" transform="matrix(0.9001183254537537,0.4356454982922816,-0.4356454982922816,0.9001183254537537,354.50123087323266,-288.2195672778089)" fill="#ffbd9b"></use><use xlink:href="#bbburst-shape-2" width="12.895738027440911" opacity="0.8847075743555461" transform="matrix(0.9973885981118485,0.07222177203919491,-0.07222177203919491,0.9973885981118485,136.07260146267095,-379.82163676080864)" fill="#00a19d"></use><use xlink:href="#bbburst-shape-4" width="65.15199600830634" opacity="0.36804579391499237" transform="matrix(0.9360574846705174,-0.3518471051356031,0.3518471051356031,0.9360574846705174,414.08362406876665,-124.58635931785585)" fill="#ffa6d5" filter="url(#bbburst-blur-2)"></use><use xlink:href="#bbburst-shape-2" width="36.686950818135685" opacity="0.5025402801506447" transform="matrix(0.8714500444046541,0.49048427100889425,-0.49048427100889425,0.8714500444046541,659.0807809947108,-222.8814025024531)" fill="#2c2891" filter="url(#bbburst-blur-1)"></use><use xlink:href="#bbburst-shape-2" width="10.428651277623182" opacity="0.9439589330557416" transform="matrix(0.8548004335963075,0.5189568563219534,-0.5189568563219534,0.8548004335963075,233.32832144170385,-297.41758331166125)" fill="#2c2891"></use><use xlink:href="#bbburst-shape-6" width="32.64269349172848" opacity="0.6706650540414567" transform="matrix(0.8869062504270702,-0.46194945930631315,0.46194945930631315,0.8869062504270702,112.15783967409186,-240.06152632922135)" fill="#2c2891"></use><use xlink:href="#bbburst-shape-10" width="23.171680209961515" opacity="0.7418749553979731" transform="matrix(0.8008246134396706,0.5988989384772712,-0.5988989384772712,0.8008246134396706,257.67236253847807,-70.60095330929136)" fill="none" stroke="#2c2891"></use><use xlink:href="#bbburst-shape-1" width="34.966018337408954" opacity="0.652415841867338" transform="matrix(0.9701671376150593,0.2424370538754391,-0.2424370538754391,0.9701671376150593,199.81290656156165,-65.97927193485452)" fill="#ffa6d5"></use><use xlink:href="#bbburst-shape-2" width="26.839952256816485" opacity="0.7339884869787707" transform="matrix(0.8037060676460933,-0.5950265177526572,0.5950265177526572,0.8037060676460933,-13.179548262590686,-189.99279401443562)" fill="#ffa6d5"></use><use xlink:href="#bbburst-shape-3" width="52.872414596118546" opacity="0.49903367985548397" transform="matrix(0.9486844938385143,0.3162241786302273,-0.3162241786302273,0.9486844938385143,398.50062356722674,15.327935044392575)" fill="#ff5c58" filter="url(#bbburst-blur-1)"></use><use xlink:href="#bbburst-shape-1" width="80.70389895385" opacity="-0.0028308128433409685" transform="matrix(0.9615390439627117,0.2746682852738449,-0.2746682852738449,0.9615390439627117,777.635118773156,316.01270906392546)" fill="#00a19d" filter="url(#bbburst-blur-3)"></use><use xlink:href="#bbburst-shape-9" width="41.23861113439725" opacity="0.47328345161324015" transform="matrix(0.7313578204234197,0.6819939431589587,-0.6819939431589587,0.7313578204234197,426.8652856344456,192.07353723948842)" fill="none" stroke="#00a19d" filter="url(#bbburst-blur-1)"></use><use xlink:href="#bbburst-shape-4" width="25.501543605605875" opacity="0.7484227141229732" transform="matrix(0.9988621152448143,0.04769145341311611,-0.04769145341311611,0.9988621152448143,254.4960580573521,-358.78623355984513)" fill="#ffbd9b"></use><use xlink:href="#bbburst-shape-9" width="60.11845183612626" opacity="0.3470815533119411" transform="matrix(0.9252327851526589,-0.3793999120699078,0.3793999120699078,0.9252327851526589,255.764539792947,127.40422329721298)" fill="none" stroke="#ff5c58" filter="url(#bbburst-blur-2)"></use><use xlink:href="#bbburst-shape-13" width="65.4594167730257" opacity="0.10587829904458701" transform="matrix(0.835925255198879,0.5488432997866414,-0.5488432997866414,0.835925255198879,912.6671338652941,177.14600286001428)" fill="none" stroke="#00a19d" filter="url(#bbburst-blur-3)"></use><use xlink:href="#bbburst-shape-6" width="32.39877935331341" opacity="0.6796526064942889" transform="matrix(0.7207147615008855,0.693231730776024,-0.693231730776024,0.7207147615008855,584.1713785441856,-265.66654585086354)" fill="#00a19d"></use><use xlink:href="#bbburst-shape-13" width="15.072943899208212" opacity="0.8512306839793319" transform="matrix(0.9993612275373004,0.03573705213276614,-0.03573705213276614,0.9993612275373004,140.98937394246693,-335.8606172991587)" fill="none" stroke="#ffbd9b"></use><use xlink:href="#bbburst-shape-3" width="53.852318069382434" opacity="0.23997562260590066" transform="matrix(0.924599227180434,0.3809412935051072,-0.3809412935051072,0.924599227180434,855.8433299214221,-163.73145665809818)" fill="#2c2891" filter="url(#bbburst-blur-3)"></use><use xlink:href="#bbburst-shape-9" width="37.69551513558004" opacity="0.5652524273405289" transform="matrix(0.8165749674310446,0.5772393979667262,-0.5772393979667262,0.8165749674310446,542.2996734782093,-50.825800161042764)" fill="none" stroke="#ffa6d5" filter="url(#bbburst-blur-1)"></use><use xlink:href="#bbburst-shape-6" width="54.15023505519693" opacity="0.39781602507969605" transform="matrix(0.9986009514436059,0.05287853795184806,-0.05287853795184806,0.9986009514436059,287.9460036769616,124.75994371657129)" fill="#ffa6d5" filter="url(#bbburst-blur-2)"></use><use xlink:href="#bbburst-shape-2" width="13.826521622361149" opacity="0.8533430743116277" transform="matrix(0.9606599985064583,0.27772714535956244,-0.27772714535956244,0.9606599985064583,216.12097036255983,-291.11248905895985)" fill="#00a19d"></use><use xlink:href="#bbburst-shape-1" width="63.56792873646587" opacity="0.3037084537114423" transform="matrix(0.963560707640528,0.267489743151555,-0.267489743151555,0.963560707640528,646.3499305885947,6.052687251721295)" fill="#2c2891" filter="url(#bbburst-blur-2)"></use><use xlink:href="#bbburst-shape-8" width="11.1811748178352" opacity="0.9288010633077829" transform="matrix(0.7912072415978687,-0.6115481181747613,0.6115481181747613,0.7912072415978687,-234.6820003091898,-243.32831909744516)" fill="none" stroke="#00a19d"></use><use xlink:href="#bbburst-shape-2" width="17.920029924670242" opacity="0.8773586481963448" transform="matrix(0.8374761748556793,-0.546473838851504,0.546473838851504,0.8374761748556793,-155.3642937579536,-229.8916697516574)" fill="#ffa6d5"></use><use xlink:href="#bbburst-shape-8" width="41.23031961968458" opacity="0.3574356224578218" transform="matrix(0.757372014570138,0.6529836380384815,-0.6529836380384815,0.757372014570138,308.5317149394106,323.0631107838851)" fill="none" stroke="#00a19d" filter="url(#bbburst-blur-2)"></use><use xlink:href="#bbburst-shape-4" width="18.95361146889809" opacity="0.8039268992497077" transform="matrix(0.9990056742914047,-0.04458321134211627,0.04458321134211627,0.9990056742914047,-1.1266850418206893,-204.84422990767595)" fill="#ffa6d5"></use><use xlink:href="#bbburst-shape-2" width="16.01433510744586" opacity="0.8552877636384525" transform="matrix(0.9937884852829673,-0.11128542815205214,0.11128542815205214,0.9937884852829673,-35.965260881087914,-252.84841690351766)" fill="#2c2891"></use><use xlink:href="#bbburst-shape-4" width="34.106016411608586" opacity="0.587796107197479" transform="matrix(0.8099353794118076,0.5865191226013448,-0.5865191226013448,0.8099353794118076,597.3977934911059,-166.41209176508508)" fill="#2c2891" filter="url(#bbburst-blur-1)"></use><use xlink:href="#bbburst-shape-10" width="38.83709222950651" opacity="0.24511295203513406" transform="matrix(0.8589466856627869,-0.5120650263286037,0.5120650263286037,0.8589466856627869,-120.71801095431283,414.4934400531205)" fill="none" stroke="#00a19d" filter="url(#bbburst-blur-3)"></use><use xlink:href="#bbburst-shape-8" width="29.067099505271308" opacity="0.7359697036117332" transform="matrix(0.941154403882298,-0.3379769046147331,0.3379769046147331,0.941154403882298,-64.36372842987059,-121.40809421921216)" fill="none" stroke="#00a19d"></use><use xlink:href="#bbburst-shape-4" width="44.24796898826208" opacity="0.6343625957412814" transform="matrix(0.9937783558512047,0.11137584765862123,-0.11137584765862123,0.9937783558512047,244.88137766159906,-109.65343674293342)" fill="#00a19d" filter="url(#bbburst-blur-1)"></use><use xlink:href="#bbburst-shape-13" width="14.304001355059306" opacity="0.9142277319809452" transform="matrix(0.7452681835845639,-0.6667648270091673,0.6667648270091673,0.7452681835845639,-222.38170976935197,-223.4005658526899)" fill="none" stroke="#ffa6d5"></use><use xlink:href="#bbburst-shape-9" width="8.637486128881159" opacity="0.9837363744592833" transform="matrix(0.9820788811150937,-0.18847034585771244,0.18847034585771244,0.9820788811150937,-68.16814512466568,-380.5469208233637)" fill="none" stroke="#ffa6d5"></use><use xlink:href="#bbburst-shape-9" width="51.29373970760055" opacity="0.19919546262766508" transform="matrix(0.9975445283540781,0.07003509085337,-0.07003509085337,0.9975445283540781,303.18843750247254,341.0317209688977)" fill="none" stroke="#2c2891" filter="url(#bbburst-blur-3)"></use><use xlink:href="#bbburst-shape-9" width="15.797545254900411" opacity="0.8471481580173276" transform="matrix(0.9999276232392064,-0.012031138067185402,0.012031138067185402,0.9999276232392064,138.13384162188376,-375.29974677073704)" fill="none" stroke="#00a19d"></use><use xlink:href="#bbburst-shape-6" width="36.74106112024489" opacity="0.6500241328342833" transform="matrix(0.9378479562594101,0.3470464103546492,-0.3470464103546492,0.9378479562594101,408.61487254207236,-181.2652897269687)" fill="#00a19d"></use><use xlink:href="#bbburst-shape-2" width="12.055697740450938" opacity="0.9114532844238104" transform="matrix(0.727627674654235,0.6859722786507271,-0.6859722786507271,0.727627674654235,355.28813731883923,-271.38591346192754)" fill="#ffa6d5"></use><use xlink:href="#bbburst-shape-6" width="10.891687964885858" opacity="0.9619870290721042" transform="matrix(0.9319295141264965,-0.3626394637928314,0.3626394637928314,0.9319295141264965,-115.22633846207214,-355.7416283069866)" fill="#2c2891"></use><use xlink:href="#bbburst-shape-9" width="8.650962516339163" opacity="0.9616184914745269" transform="matrix(0.9431522032462718,-0.3323611311686479,0.3323611311686479,0.9431522032462718,-126.35179592167387,-339.0159454156103)" fill="none" stroke="#00a19d"></use><use xlink:href="#bbburst-shape-2" width="33.53840810646946" opacity="0.664665683740822" transform="matrix(0.7318481491839016,0.6814677443108351,-0.6814677443108351,0.7318481491839016,297.8703120547177,29.06879891503297)" fill="#ffa6d5"></use><use xlink:href="#bbburst-shape-6" width="18.681330690684778" opacity="0.8035403399452382" transform="matrix(0.7882722439526085,-0.6153266363598436,0.6153266363598436,0.7882722439526085,-58.38735075720069,-286.5396946913338)" fill="#ffa6d5"></use><use xlink:href="#bbburst-shape-8" width="43.842670999612345" opacity="0.5696179284702467" transform="matrix(0.9761124381319141,0.2172659847379941,-0.2172659847379941,0.9761124381319141,249.14757413394693,-5.970683675112468)" fill="none" stroke="#2c2891" filter="url(#bbburst-blur-1)"></use><use xlink:href="#bbburst-shape-4" width="19.609496498085974" opacity="0.7966259362574053" transform="matrix(0.9692252200521586,-0.24617569501241335,0.24617569501241335,0.9692252200521586,-28.48649324409314,-198.05991753748032)" fill="#ff5c58"></use><use xlink:href="#bbburst-shape-4" width="55.63044141768143" opacity="0.1918484133618945" transform="matrix(0.809003993520974,0.587803146016688,-0.587803146016688,0.809003993520974,933.6352518700473,25.05662672703596)" fill="#ffa6d5" filter="url(#bbburst-blur-3)"></use><use xlink:href="#bbburst-shape-8" width="11.351736416538913" opacity="0.8966838700571423" transform="matrix(0.8772899278325603,-0.47996081352912673,0.47996081352912673,0.8772899278325603,-185.31152636477574,-245.5348269234239)" fill="none" stroke="#ffa6d5"></use><use xlink:href="#bbburst-shape-9" width="41.471319479750974" opacity="0.46861635594343076" transform="matrix(0.8896704094805766,-0.456603287871061,0.456603287871061,0.8896704094805766,-143.41129820754273,181.58124248524683)" fill="none" stroke="#ffa6d5" filter="url(#bbburst-blur-1)"></use><use xlink:href="#bbburst-shape-9" width="7.72443381984529" opacity="0.9367451772521803" transform="matrix(0.8663122581583598,0.49950282418076825,-0.49950282418076825,0.8663122581583598,258.7634461252886,-337.44924160658456)" fill="none" stroke="#ffa6d5"></use><use xlink:href="#bbburst-shape-8" width="44.99724375856211" opacity="0.5872543376375216" transform="matrix(0.9935815133129248,0.11311841761091894,-0.11311841761091894,0.9935815133129248,432.89961939860893,-352.5046589967504)" fill="none" stroke="#2c2891" filter="url(#bbburst-blur-1)"></use><use xlink:href="#bbburst-shape-10" width="26.90534817898888" opacity="0.7176229547656316" transform="matrix(0.928357238374475,0.3716891684697284,-0.3716891684697284,0.928357238374475,342.56533751190574,-183.6135470112153)" fill="none" stroke="#00a19d"></use><use xlink:href="#bbburst-shape-3" width="15.559432808439778" opacity="0.8477447169321854" transform="matrix(0.9126069102769004,0.40883814317508277,-0.40883814317508277,0.9126069102769004,210.00653390019357,-225.74857025309126)" fill="#00a19d"></use><use xlink:href="#bbburst-shape-2" width="39.818801601680256" opacity="0.4631983163534139" transform="matrix(0.8694330373829914,-0.4940508005326839,0.4940508005326839,0.8694330373829914,319.3532462683414,-285.88282882756243)" fill="#ff5c58" filter="url(#bbburst-blur-1)"></use><use xlink:href="#bbburst-shape-8" width="55.01448078445706" opacity="0.25854880092553834" transform="matrix(0.8580466500141499,0.5135717538956898,-0.5135717538956898,0.8580466500141499,573.4130568860824,272.2650882562241)" fill="none" stroke="#00a19d" filter="url(#bbburst-blur-2)"></use><use xlink:href="#bbburst-shape-1" width="48.05379513778307" opacity="0.4792270341850692" transform="matrix(0.7914911064119939,-0.6111806839803738,0.6111806839803738,0.7914911064119939,193.70944145076152,-52.446607348057114)" fill="#ffbd9b" filter="url(#bbburst-blur-1)"></use><use xlink:href="#bbburst-shape-13" width="24.729401513360273" opacity="0.7757350764676902" transform="matrix(0.9309576159700524,0.3651272617421991,-0.3651272617421991,0.9309576159700524,271.3591556319451,-199.20349975521586)" fill="none" stroke="#ffa6d5"></use><use xlink:href="#bbburst-shape-3" width="50.46295142286317" opacity="0.2528488682593658" transform="matrix(0.9029268462389307,0.42979426513277064,-0.42979426513277064,0.9029268462389307,892.9025739408281,-302.9121689926134)" fill="#ffa6d5" filter="url(#bbburst-blur-2)"></use><use xlink:href="#bbburst-shape-4" width="17.204952446141146" opacity="0.8307712525042965" transform="matrix(0.7886265466232556,-0.6148724826832618,0.6148724826832618,0.7886265466232556,-151.9973109192162,-174.16137608524468)" fill="#2c2891"></use><use xlink:href="#bbburst-shape-9" width="12.78720344066156" opacity="0.9322914225703193" transform="matrix(0.9650889147152637,0.26192248222272635,-0.26192248222272635,0.9650889147152637,154.1102290427648,-348.9936801821482)" fill="none" stroke="#00a19d"></use><use xlink:href="#bbburst-shape-10" width="59.37606210508919" opacity="0.10710232009591503" transform="matrix(0.8518739792076927,0.5237468124474377,-0.5237468124474377,0.8518739792076927,695.688228121393,375.58561114998923)" fill="none" stroke="#2c2891" filter="url(#bbburst-blur-3)"></use><use xlink:href="#bbburst-shape-4" width="11.783427196536014" opacity="0.8910256543103501" transform="matrix(0.9202035276176024,0.3914402480074328,-0.3914402480074328,0.9202035276176024,188.66215818067653,-268.0632763020087)" fill="#00a19d"></use><use xlink:href="#bbburst-shape-4" width="53.8803616465045" opacity="0.3327513987885464" transform="matrix(0.9936848531678103,0.11220700773511098,-0.11220700773511098,0.9936848531678103,224.5122628007582,234.07336555456914)" fill="#2c2891" filter="url(#bbburst-blur-2)"></use><use xlink:href="#bbburst-shape-2" width="48.22571993706026" opacity="0.4446335188718159" transform="matrix(0.9771992079609945,0.21232453452299183,-0.21232453452299183,0.9771992079609945,485.9588758480709,-37.99652605649783)" fill="#2c2891" filter="url(#bbburst-blur-2)"></use><use xlink:href="#bbburst-shape-10" width="37.12087411209413" opacity="0.3602103455104604" transform="matrix(0.9890889699853725,-0.1473194130224352,0.1473194130224352,0.9890889699853725,556.320295328356,-304.16427492216536)" fill="none" stroke="#ffa6d5" filter="url(#bbburst-blur-2)"></use><use xlink:href="#bbburst-shape-9" width="24.208170389545298" opacity="0.7959448820542219" transform="matrix(0.7700036295454717,-0.6380395054279946,0.6380395054279946,0.7700036295454717,-102.76386641579353,-176.16827393979082)" fill="none" stroke="#2c2891"></use></svg>